<svg id="Layer_1" data-name="Layer 1" xmlns="http://www.w3.org/2000/svg" xmlns:xlink="http://www.w3.org/1999/xlink" viewBox="0 0 587.72 566.49"><defs><style>.cls-1,.cls-6,.cls-9{fill:none;}.cls-2{clip-path:url(#clip-path);}.cls-3{fill:#5dcee8;stroke:#00a99d;stroke-width:23px;}.cls-3,.cls-6,.cls-9{stroke-miterlimit:10;}.cls-4{fill:#00a99d;}.cls-5{fill:#0071bc;opacity:0.21;}.cls-6{stroke-width:27px;stroke:url(#linear-gradient);}.cls-7{fill:#008e9d;}.cls-8{fill:#fff;}.cls-9{stroke:#008e9d;stroke-linecap:round;stroke-width:19px;}</style><clipPath id="clip-path"><ellipse class="cls-1" cx="293.69" cy="283.55" rx="274.41" ry="265"/></clipPath><linearGradient id="linear-gradient" x1="16" y1="286.49" x2="568" y2="286.49" gradientUnits="userSpaceOnUse"><stop offset="0" stop-color="#00a99d"/><stop offset="1" stop-color="#008e9d"/></linearGradient></defs><title>Artboard 1</title><g class="cls-2"><ellipse class="cls-3" cx="294.71" cy="286.55" rx="262.5" ry="253.5"/><path class="cls-4" d="M285.82,44.86c17.63,3.19,35.92,9.88,46.34,24.46s8.7,38.57-7.18,46.87c-10.55,5.51-23.35,2.77-34.85-.3s-24-6.3-35-1.58-16.77,21.42-7.32,28.66c17.3-13.62,47.21,8.74,39,29.19-3.19,8-10.17,13.77-17.18,18.75A206,206,0,0,1,232,212.06c-12.51,5.39-28.47,15-24.15,28-12.85-8.32-26.83-17-42.13-16.23S135.16,239.59,140.32,254c1.94,5.41,6.26,9.59,10.73,13.19A107.32,107.32,0,0,0,229.89,290c18.93-2.21,37.47-9.52,56.45-7.77,25.12,2.32,46.27,20.28,61,40.76,7.6,10.57,14.15,22.58,14.68,35.59.91,22.38-15.54,41-27,60.31A148.56,148.56,0,0,0,316,515.14c-9.11,7.07-23.07.33-29.12-9.48s-7.38-21.8-12.11-32.32c-9.38-20.88-30.55-33.32-48-48.13s-33-37.83-25-59.31c5.65-15.34,21.91-32.77,10.44-44.42-2.61-2.65-6.19-4.06-9.66-5.4L96.1,274.95c-10.66-4.12-21.5-8.34-30.45-15.44-10.93-8.66-18.31-21-24.15-33.7C11.42,160.55,18.87,79.5,60.34,20.82,69.18,8.31,79.92-3.57,94-9.53s32.19-4.58,42.6,6.65c20.59,22.21,6.78,56.72,44.3,59.4C215.38,59,247.72,38,285.82,44.86Z"/><path class="cls-4" d="M468.78,152.41c-9.22-6.92-25.49-11.56-29.65-.8-1.3,3.37-.63,7.14.16,10.66a175,175,0,0,0,41.25,79C465.64,248.55,450.4,256,438.86,268s-18.82,29.35-14.3,45.31c6,21.11,30.27,32.22,52.21,31.91,7.15-.1,15.5-.63,20.12,4.84,3.18,3.76,3.36,9.14,3.33,14.06a584.82,584.82,0,0,1-7.85,91.57c13.81,4.83,27.26-7.35,36.77-18.47,36.93-43.22,74.09-92.48,74.59-149.32.14-16.42-3.12-33.41-12.71-46.75-17.2-23.94-42.57-22.45-65.2-36.17C504.79,192.21,488.9,167.52,468.78,152.41Z"/><path class="cls-5" d="M467.93,96.25a245.24,245.24,0,0,1,22.27,102.31c0,140-117.53,253.5-262.5,253.5-65.9,0-126.13-23.46-172.23-62.19,40.72,89,133,151.19,240.23,151.19,145,0,262.5-113.5,262.5-253.5C558.21,211.19,523.24,142.72,467.93,96.25Z"/><ellipse class="cls-6" cx="292" cy="286.49" rx="262.5" ry="253.5"/></g><path class="cls-7" d="M170.79,218.16c0,19.11-13.84,32.3-32.3,34.61-19,2.37-32.3-15.49-32.3-34.61s13.19-34.61,32.3-34.61S170.79,199,170.79,218.16Z"/><path class="cls-8" d="M153.88,213.12c3.67-1,5.2,4.86,2.38,6.5C152.84,221.6,149.45,214.29,153.88,213.12Z"/><path class="cls-8" d="M147.6,195.55c4,4.19,5.1,8.48,1.75,12.71-2.72,3.45-8.63,1.73-12.59-2.47s-7.49-12-4.36-14.67C136.39,187.72,143.64,191.36,147.6,195.55Z"/><path class="cls-7" d="M393.71,219.46c0,17.07-11.47,28.84-26.76,30.91-15.71,2.12-26.76-13.84-26.76-30.91s10.92-30.91,26.76-30.91S393.71,202.39,393.71,219.46Z"/><path class="cls-8" d="M377.7,215c4-3.4,6.31,4.34,4,5.81C378.84,222.53,374.79,217.43,377.7,215Z"/><path class="cls-8" d="M374.5,199.27c3.28,3.74,4.22,7.57,1.45,11.35-2.26,3.08-9.15,2.54-12.43-1.2s-4.21-11.71-1.61-14.1C365.21,192.27,371.22,195.52,374.5,199.27Z"/><path class="cls-9" d="M222.21,275.05c12,23,48,24,66-2"/></svg>