<svg id="Layer_1" data-name="Layer 1" xmlns="http://www.w3.org/2000/svg" xmlns:xlink="http://www.w3.org/1999/xlink" viewBox="0 0 587.72 566.49"><defs><style>.cls-1,.cls-6,.cls-9{fill:none;}.cls-2{clip-path:url(#clip-path);}.cls-3{fill:#5dcee8;stroke:#00a99d;stroke-width:23px;}.cls-3,.cls-6,.cls-9{stroke-miterlimit:10;}.cls-4{fill:#00a99d;}.cls-5{fill:#0071bc;opacity:0.21;}.cls-6{stroke-width:27px;stroke:url(#linear-gradient);}.cls-7{fill:#008e9d;}.cls-8{fill:#fff;}.cls-9{stroke:#008e9d;stroke-linecap:round;stroke-width:19px;}</style><clipPath id="clip-path"><ellipse class="cls-1" cx="292.69" cy="282.55" rx="274.41" ry="265"/></clipPath><linearGradient id="linear-gradient" x1="15" y1="285.49" x2="567" y2="285.49" gradientUnits="userSpaceOnUse"><stop offset="0" stop-color="#00a99d"/><stop offset="1" stop-color="#008e9d"/></linearGradient></defs><title>correct</title><g class="cls-2"><ellipse class="cls-3" cx="293.71" cy="285.55" rx="262.5" ry="253.5"/><path class="cls-4" d="M284.82,43.86c17.63,3.19,35.92,9.88,46.34,24.46s8.7,38.57-7.18,46.87c-10.55,5.51-23.35,2.77-34.85-.3s-24-6.3-35-1.58-16.77,21.42-7.32,28.66c17.3-13.62,47.21,8.74,39,29.19-3.19,8-10.17,13.77-17.18,18.75A206,206,0,0,1,231,211.06c-12.51,5.39-28.47,15-24.15,28-12.85-8.32-26.83-17-42.13-16.23S134.16,238.59,139.32,253c1.94,5.41,6.26,9.59,10.73,13.19A107.32,107.32,0,0,0,228.89,289c18.93-2.21,37.47-9.52,56.45-7.77,25.12,2.32,46.27,20.28,61,40.76,7.6,10.57,14.15,22.58,14.68,35.59.91,22.38-15.54,41-27,60.31A148.56,148.56,0,0,0,315,514.14c-9.11,7.07-23.07.33-29.12-9.48s-7.38-21.8-12.11-32.32c-9.38-20.88-30.55-33.32-48-48.13s-33-37.83-25-59.31c5.65-15.34,21.91-32.77,10.44-44.42-2.61-2.65-6.19-4.06-9.66-5.4L95.1,273.95c-10.66-4.12-21.5-8.34-30.45-15.44-10.93-8.66-18.31-21-24.15-33.7C10.42,159.55,17.87,78.5,59.34,19.82,68.18,7.31,78.92-4.57,93-10.53s32.19-4.58,42.6,6.65c20.59,22.21,6.78,56.72,44.3,59.4C214.38,58,246.72,37,284.82,43.86Z"/><path class="cls-4" d="M467.78,151.41c-9.22-6.92-25.49-11.56-29.65-.8-1.3,3.37-.63,7.14.16,10.66a175,175,0,0,0,41.25,79C464.64,247.55,449.4,255,437.86,267s-18.82,29.35-14.3,45.31c6,21.11,30.27,32.22,52.21,31.91,7.15-.1,15.5-.63,20.12,4.84,3.18,3.76,3.36,9.14,3.33,14.06a584.82,584.82,0,0,1-7.85,91.57c13.81,4.83,27.26-7.35,36.77-18.47,36.93-43.22,74.09-92.48,74.59-149.32.14-16.42-3.12-33.41-12.71-46.75-17.2-23.94-42.57-22.45-65.2-36.17C503.79,191.21,487.9,166.52,467.78,151.41Z"/><path class="cls-5" d="M466.93,95.25a245.24,245.24,0,0,1,22.27,102.31c0,140-117.53,253.5-262.5,253.5-65.9,0-126.13-23.46-172.23-62.19,40.72,89,133,151.19,240.23,151.19,145,0,262.5-113.5,262.5-253.5C557.21,210.19,522.24,141.72,466.93,95.25Z"/><ellipse class="cls-6" cx="291" cy="285.49" rx="262.5" ry="253.5"/></g><path class="cls-7" d="M329.11,218.16c0,19.11,13.84,32.3,32.3,34.61,19,2.37,32.3-15.49,32.3-34.61s-13.19-34.61-32.3-34.61S329.11,199,329.11,218.16Z"/><path class="cls-8" d="M346,213.12c-3.67-1-5.2,4.86-2.38,6.5C347.06,221.6,350.45,214.29,346,213.12Z"/><path class="cls-8" d="M352.3,195.55c-4,4.19-5.1,8.48-1.75,12.71,2.72,3.45,8.63,1.73,12.59-2.47s7.49-12,4.36-14.67C363.51,187.72,356.26,191.36,352.3,195.55Z"/><path class="cls-7" d="M106.19,219.46c0,17.07,11.47,28.84,26.76,30.91,15.71,2.12,26.76-13.84,26.76-30.91s-10.92-30.91-26.76-30.91S106.19,202.39,106.19,219.46Z"/><path class="cls-8" d="M122.2,215c-4-3.4-6.31,4.34-4,5.81C121.06,222.53,125.11,217.43,122.2,215Z"/><path class="cls-8" d="M125.4,199.27c-3.28,3.74-4.22,7.57-1.45,11.35,2.26,3.08,9.15,2.54,12.43-1.2s4.21-11.71,1.61-14.1C134.69,192.27,128.68,195.52,125.4,199.27Z"/><path class="cls-9" d="M222.21,275.05c12,23,48,24,66-2"/></svg>