<svg id="Layer_1" data-name="Layer 1" xmlns="http://www.w3.org/2000/svg" xmlns:xlink="http://www.w3.org/1999/xlink" viewBox="0 0 587.72 566.49"><defs><style>.cls-1,.cls-6,.cls-7{fill:none;}.cls-2{clip-path:url(#clip-path);}.cls-3{fill:#5dcee8;stroke:#00a99d;stroke-width:23px;}.cls-3,.cls-6,.cls-7{stroke-miterlimit:10;}.cls-4{fill:#00a99d;}.cls-5{fill:#0071bc;opacity:0.21;}.cls-10,.cls-5{isolation:isolate;}.cls-6{stroke-width:27px;stroke:url(#linear-gradient);}.cls-7{stroke:#008e9d;stroke-linecap:round;stroke-width:19px;}.cls-8{fill:#008e9d;}.cls-9{fill:#fff;}.cls-10{fill:#cafdff;opacity:0.69;}</style><clipPath id="clip-path"><ellipse class="cls-1" cx="293.69" cy="283.55" rx="274.41" ry="265"/></clipPath><linearGradient id="linear-gradient" x1="16" y1="281.51" x2="568" y2="281.51" gradientTransform="matrix(1, 0, 0, -1, 0, 568)" gradientUnits="userSpaceOnUse"><stop offset="0" stop-color="#00a99d"/><stop offset="1" stop-color="#008e9d"/></linearGradient></defs><title>incorrect</title><g class="cls-2"><ellipse class="cls-3" cx="294.71" cy="286.55" rx="262.5" ry="253.5"/><path class="cls-4" d="M285.82,44.86c17.63,3.19,35.92,9.88,46.34,24.46s8.7,38.57-7.18,46.87c-10.55,5.51-23.35,2.77-34.85-.3s-24-6.3-35-1.58-16.77,21.42-7.32,28.66c17.3-13.62,47.21,8.74,39,29.19-3.19,8-10.17,13.77-17.18,18.75A206,206,0,0,1,232,212.06c-12.51,5.39-28.47,15-24.15,28-12.85-8.32-26.83-17-42.13-16.23s-30.56,15.76-25.4,30.17c1.94,5.41,6.26,9.59,10.73,13.19A107.32,107.32,0,0,0,229.89,290c18.93-2.21,37.47-9.52,56.45-7.77,25.12,2.32,46.27,20.28,61,40.76,7.6,10.57,14.15,22.58,14.68,35.59.91,22.38-15.54,41-27,60.31a148.56,148.56,0,0,0-19,96.25c-9.11,7.07-23.07.33-29.12-9.48s-7.38-21.8-12.11-32.32c-9.38-20.88-30.55-33.32-48-48.13s-33-37.83-25-59.31c5.65-15.34,21.91-32.77,10.44-44.42-2.61-2.65-6.19-4.06-9.66-5.4L96.1,275c-10.66-4.12-21.5-8.34-30.45-15.44-10.93-8.66-18.31-21-24.15-33.7C11.42,160.55,18.87,79.5,60.34,20.82,69.18,8.31,79.92-3.57,94-9.53s32.19-4.58,42.6,6.65c20.59,22.21,6.78,56.72,44.3,59.4C215.38,59,247.72,38,285.82,44.86Z"/><path class="cls-4" d="M468.78,152.41c-9.22-6.92-25.49-11.56-29.65-.8-1.3,3.37-.63,7.14.16,10.66a175,175,0,0,0,41.25,79C465.64,248.55,450.4,256,438.86,268s-18.82,29.35-14.3,45.31c6,21.11,30.27,32.22,52.21,31.91,7.15-.1,15.5-.63,20.12,4.84,3.18,3.76,3.36,9.14,3.33,14.06a584.82,584.82,0,0,1-7.85,91.57c13.81,4.83,27.26-7.35,36.77-18.47,36.93-43.22,74.09-92.48,74.59-149.32.14-16.42-3.12-33.41-12.71-46.75-17.2-23.94-42.57-22.45-65.2-36.17C504.79,192.21,488.9,167.52,468.78,152.41Z"/><path class="cls-5" d="M467.93,96.25A245.24,245.24,0,0,1,490.2,198.56c0,140-117.53,253.5-262.5,253.5-65.9,0-126.13-23.46-172.23-62.19,40.72,89,133,151.19,240.23,151.19,145,0,262.5-113.5,262.5-253.5C558.21,211.19,523.24,142.72,467.93,96.25Z"/><ellipse class="cls-6" cx="292" cy="286.49" rx="262.5" ry="253.5"/></g><path class="cls-7" d="M217.21,290.43c12-23,48-24,66,2"/><path class="cls-8" d="M356.77,183.55c19.11,0,32.3,15.49,32.3,34.61s-13.3,37-32.3,34.61c-18.46-2.31-32.3-15.5-32.3-34.61S337.66,183.55,356.77,183.55Z"/><path class="cls-9" d="M339,219.62c-2.82-1.64-1.29-7.5,2.38-6.5C345.81,214.29,342.42,221.6,339,219.62Z"/><path class="cls-9" d="M362.86,191.12c3.13,2.67-.4,10.47-4.36,14.67s-9.87,5.92-12.59,2.47c-3.35-4.23-2.25-8.52,1.75-12.71S358.87,187.72,362.86,191.12Z"/><path class="cls-10" d="M343.38,254.18A4.9,4.9,0,0,0,345.8,259a44.81,44.81,0,0,0,30.43,4.55c6.06-1.28,13.35-4.93,16.06-10.78a5,5,0,0,0,1.08-5.32,6.36,6.36,0,0,1-.06-.88c-.94-8.74-11.37-12.81-19-13.22a27.1,27.1,0,0,0-21.76,9.17c-3.2-2.06-6.21-4.53-9.86-5.68-4-1.27-9.75-.63-11.43,3.81C328.26,248.57,336.16,252.42,343.38,254.18Z"/><path class="cls-9" d="M362.32,247.08a7,7,0,0,0,3.07,6.47,7.55,7.55,0,0,0,6.85.4c2.47-.88,4.86-2.12,6.27-4.44a8,8,0,0,0,.42-7.71c-2.51-5.1-10.29-3.5-14.29-1.33a5,5,0,0,0-2.2,5.82A6.84,6.84,0,0,0,362.32,247.08Z"/><path class="cls-9" d="M336.18,239.45a5.3,5.3,0,0,0,3.7,9,5.19,5.19,0,0,0,3.54-1.46,5,5,0,0,0,1.46-3.54v-.55a5.08,5.08,0,0,0-1.46-3.54,5.31,5.31,0,0,0-3.54-1.46,5.18,5.18,0,0,0-3.72,1.52Z"/><path class="cls-8" d="M128.31,188.55c15.84,0,26.76,13.84,26.76,30.91s-11.05,33-26.76,30.91c-15.29-2.07-26.76-13.84-26.76-30.91S112.47,188.55,128.31,188.55Z"/><path class="cls-9" d="M113.56,220.81c-2.31-1.47,0-9.21,4-5.81C120.47,217.43,116.42,222.53,113.56,220.81Z"/><path class="cls-9" d="M133.35,195.32c2.6,2.39,1.67,10.36-1.61,14.1s-10.17,4.28-12.43,1.2c-2.77-3.78-1.83-7.61,1.45-11.35S130,192.27,133.35,195.32Z"/><path class="cls-10" d="M106.94,247.67c2,4.2,8.53,7.28,12.82,8.2a13.78,13.78,0,0,0,7.36-.44,21.17,21.17,0,0,0,6.08,2.87c9.8,3,30.47,2.74,27.26-13-2.08-10.22-12.62-13.58-21.35-10.86a28.25,28.25,0,0,0-3.54.34,17.45,17.45,0,0,0-9.81,4.84c-4.1-1.75-8.83-2.86-13.1-2.16C107.75,238.26,104.6,242.87,106.94,247.67Z"/><path class="cls-9" d="M133,245.6a5,5,0,0,0,.18,1.56c.66,2.41,3.63,4.49,6.15,3.49l7.84-3.07a5.16,5.16,0,0,0,3.58-4.16c.26-1.78-.62-4.21-2.39-5-4.62-2.07-10.91-3.59-14.69.93A5.23,5.23,0,0,0,133,245.6Z"/><path class="cls-9" d="M115.26,250.55c6.45,0,6.43-10,0-10S108.81,250.55,115.26,250.55Z"/></svg>